<?xml version="1.0" encoding="UTF-8"?>
<svg id="UG_UGGText" data-name="Layer 1" xmlns="http://www.w3.org/2000/svg" viewBox="0 0 786.21 259.23" height="500" width="500">
  <defs>
    <style>
      .cls-1 {
        fill: #fff;
      }
    </style>
  </defs>
  <path class="cls-1" d="m39.27,17.72l.27,64.49c0,4.55,2.32,8.79,6.96,12.71,4.46,3.84,9.01,5.75,13.65,5.75,3.88,0,7.57-1.07,11.07-3.21,3.5-2.14,6.23-4.91,8.19-8.29,0-.04.34-1.36,1.04-3.95.69-2.59,1.06-4.21,1.1-4.88.49-6.11.76-13.02.8-20.74.04-4.95-.02-11.97-.2-21.07-.22-9.63-.33-16.57-.33-20.8h20.87v65.82c0,10.17-4.57,19.2-13.71,27.09-8.79,7.58-18.33,11.37-28.63,11.37-12.8,0-23.24-4.73-31.31-14.18-7.58-8.92-11.37-19.87-11.37-32.85,0-6.38.08-15.96.23-28.76.16-12.8.23-22.39.23-28.76,1.78.45,4.04.69,6.76.74,1.74,0,4.21-.07,7.43-.2,3.43-.18,5.75-.27,6.96-.27Z"/>
  <path class="cls-1" d="m150.1,44.48c9.32,0,16.83,2.92,22.54,8.76,5.57,5.8,8.36,13.31,8.36,22.54v43.62h-20.34c0-.22.09-5.33.27-15.32.13-8.61.16-15.43.07-20.47-.13-7.18-.51-11.66-1.14-13.45-.58-1.61-1.92-3.21-4.01-4.82-2.1-1.61-3.97-2.41-5.62-2.41-3.08,0-6.35.96-9.83,2.88-3.97,2.23-5.95,4.75-5.95,7.56v46.02h-20.34V46.35h20.34c-.04,1.43.04,2.94.27,4.55,5.44-4.28,10.57-6.42,15.39-6.42Z"/>
  <path class="cls-1" d="m217.92,17.18c.36.36.54,9.9.54,28.63h18.46v16.86h-18.46v36.45c0,1.43,1.05,2.59,3.14,3.48,1.69.67,3.37,1.01,5.02,1.01,2.5,0,5.4-.62,8.7-1.87.67,3.57,2.18,9.1,4.55,16.59-7,2.18-13.76,3.28-20.27,3.28-10.26,0-16.68-2.61-19.27-7.83-1.47-2.9-2.21-10.03-2.21-21.41v-29.7h-11.77v-16.86h11.77v-22.74c6.56-1.11,13.16-3.08,19.8-5.89Z"/>
  <path class="cls-1" d="m253.03,16.65c3.48,0,6.51.85,9.1,2.54,3.03,1.96,4.55,4.62,4.55,7.96,0,3.79-1.05,6.8-3.14,9.03-2.1,2.23-5.02,3.34-8.76,3.34-3.21,0-5.82-1.14-7.83-3.41-2.01-2.27-3.01-5.02-3.01-8.23,0-4.77,2.18-8.18,6.56-10.23,1.38-.67,2.23-1,2.54-1Zm12.31,29.97v73.05h-20.07V46.62h20.07Z"/>
  <path class="cls-1" d="m300.71,17.18c.36.36.54,9.9.54,28.63h18.46v16.86h-18.46v36.45c0,1.43,1.05,2.59,3.14,3.48,1.69.67,3.37,1.01,5.02,1.01,2.5,0,5.4-.62,8.7-1.87.67,3.57,2.18,9.1,4.55,16.59-7,2.18-13.76,3.28-20.27,3.28-10.26,0-16.68-2.61-19.27-7.83-1.47-2.9-2.21-10.03-2.21-21.41v-29.7h-11.77v-16.86h11.77v-22.74c6.56-1.11,13.16-3.08,19.8-5.89Z"/>
  <path class="cls-1" d="m345.99,17.45v81.34c1.74,2.05,4.04,3.08,6.89,3.08,1.56,0,3.19-.31,4.88-.94.31.76,1.03,6.71,2.14,17.86h-1.54c-1.52,0-4.1.39-7.76,1.17-3.66.78-6.27,1.17-7.83,1.17-4.19,0-8.01-1.29-11.44-3.88-3.79-2.85-5.69-6.33-5.69-10.44V17.45h20.34Z"/>
  <path class="cls-1" d="m390.53,44.74c13.25,0,23.17,3.92,29.77,11.77,6.24,7.4,9.1,17.73,8.56,30.97l-.07,2.21-.8-.27h-47.63c1.21,9.59,6.89,14.38,17.06,14.38,6.47,0,12.11-2.39,16.92-7.16,3.3,3.92,7.4,8.03,12.31,12.31-6.73,8.56-15.52,12.84-26.36,12.84-12.49,0-22.21-3.57-29.17-10.7-6.91-7-10.37-16.72-10.37-29.17,0-8.79,2.68-16.95,8.03-24.48,5.89-8.47,13.13-12.71,21.74-12.71Zm4.55,16.59c-3.48,0-6.65,1.36-9.5,4.08-2.63,2.54-4.28,5.55-4.95,9.03h29.17c-.94-3.7-2.63-6.76-5.08-9.16-2.77-2.63-5.98-3.95-9.63-3.95Z"/>
  <path class="cls-1" d="m504.17,17.45v101.95h-20.07v-4.55c-5.67,4.37-12.24,6.56-19.73,6.56-10.35,0-18.58-3.86-24.68-11.57-5.62-7.13-8.43-16.03-8.43-26.69,0-11.37,2.76-20.67,8.29-27.9,6.11-7.94,14.72-11.91,25.82-11.91,6.73,0,12.98,2.07,18.73,6.22V17.45h20.07Zm-52.45,66.12c0,5.48,1.25,10.02,3.75,13.62,2.85,4.14,6.89,6.21,12.11,6.21,3.97,0,7.6-1.22,10.9-3.67,3.57-2.67,5.35-5.92,5.35-9.75v-15.49c0-3.56-1.9-6.7-5.69-9.42-3.48-2.49-7.05-3.74-10.7-3.74-5.44,0-9.54,2.49-12.31,7.48-2.27,4.01-3.41,8.93-3.41,14.76Z"/>
  <path class="cls-1" d="m60.34,125.71c20.2,0,34.47,8.58,42.81,25.75-2.41.85-5.69,2.39-9.83,4.62-4.46,2.36-7.69,3.95-9.7,4.75-4.95-9.77-12.53-14.65-22.74-14.65-8.88,0-15.56,3.48-20.07,10.44-3.75,5.89-5.62,13.51-5.62,22.88s1.96,17.1,5.89,22.95c4.59,6.82,11.37,10.23,20.34,10.23,6.51,0,12.02-2.2,16.52-6.59,4.5-4.39,6.67-9.84,6.49-16.36h-25.69v-18.2h44.95v59.13h-19.53v-6.69c-6.78,6.07-15.34,9.1-25.69,9.1-14.14,0-25.55-5.71-34.25-17.12-7.94-10.39-11.91-22.81-11.91-37.26s4.33-26.94,12.98-37.06c9.05-10.61,20.74-15.92,35.05-15.92Z"/>
  <path class="cls-1" d="m142.94,154.41c12.08,0,21.54,3.55,28.36,10.64,6.82,7.09,10.23,16.66,10.23,28.7,0,10.66-3.03,19.8-9.1,27.43-6.55,8.25-15.05,12.38-25.49,12.38-11.33,0-20.29-3.83-26.89-11.51-6.24-7.22-9.37-16.57-9.37-28.03,0-9.94,2.76-18.8,8.29-26.56,6.2-8.7,14.18-13.04,23.95-13.04Zm1.1,18c-.4,0-1.61.62-3.62,1.87-6.3,3.83-9.45,9.57-9.45,17.23,0,.45.02,1,.07,1.67.09.85.13,1.4.13,1.67.18,4.72.78,8.35,1.81,10.89,1.43,3.47,3.96,6.08,7.58,7.81,2.23,1.07,3.84,1.6,4.83,1.6,5.45,0,9.61-2.18,12.47-6.54,2.41-3.74,3.62-8.46,3.62-14.16,0-14.69-5.81-22.04-17.43-22.04Z"/>
  <path class="cls-1" d="m217.38,154.41c12.08,0,21.54,3.55,28.36,10.64s10.23,16.66,10.23,28.7c0,10.66-3.03,19.8-9.1,27.43-6.55,8.25-15.05,12.38-25.49,12.38-11.33,0-20.29-3.83-26.89-11.51-6.24-7.22-9.37-16.57-9.37-28.03,0-9.94,2.76-18.8,8.29-26.56,6.2-8.7,14.18-13.04,23.95-13.04Zm1.1,18c-.4,0-1.61.62-3.62,1.87-6.3,3.83-9.45,9.57-9.45,17.23,0,.45.02,1,.07,1.67.09.85.13,1.4.13,1.67.18,4.72.78,8.35,1.81,10.89,1.43,3.47,3.96,6.08,7.58,7.81,2.24,1.07,3.84,1.6,4.83,1.6,5.45,0,9.61-2.18,12.47-6.54,2.41-3.74,3.62-8.46,3.62-14.16,0-14.69-5.81-22.04-17.43-22.04Z"/>
  <path class="cls-1" d="m290.15,155.07c11.64,0,21.58,3.7,29.83,11.1-3.57,3.57-7.67,8.03-12.31,13.38-6.47-5.39-12.13-8.09-16.99-8.09-3.88,0-7.22,1.72-10.04,5.15-.04,2.05.4,3.84,1.34,5.35,2.36.63,5.66,1.43,9.9,2.41,10.17,2.05,16.75,3.97,19.73,5.75,6.02,3.52,9.03,9.5,9.03,17.93s-3.52,14.98-10.57,19.27c-5.8,3.52-13.24,5.28-22.34,5.28-12.4,0-23.33-4.48-32.78-13.45,1.21-1.47,3.5-3.81,6.89-7.02,3.39-3.21,5.91-5.42,7.56-6.62,6.82,6.69,13.69,10.04,20.6,10.04,2.14,0,4.28-.31,6.42-.94l.27-.54c1.96-1.25,2.94-2.61,2.94-4.08,0-2.1-.89-3.77-2.68-5.02-.18.09-.77-.05-1.77-.43-1-.38-1.57-.68-1.71-.9-10.17-1.65-17.3-3.46-21.41-5.42-7.85-3.66-11.77-9.34-11.77-17.06,0-8.92,2.81-15.61,8.43-20.07,5.13-4.01,12.26-6.02,21.41-6.02Z"/>
  <path class="cls-1" d="m353.76,155.74c13.25,0,23.17,3.92,29.77,11.77,6.24,7.4,9.1,17.73,8.56,30.97l-.07,2.21-.8-.27h-47.63c1.21,9.59,6.89,14.38,17.06,14.38,6.47,0,12.11-2.38,16.92-7.16,3.3,3.93,7.4,8.03,12.31,12.31-6.73,8.56-15.52,12.84-26.36,12.84-12.49,0-22.21-3.57-29.17-10.7-6.91-7-10.37-16.72-10.37-29.17,0-8.78,2.68-16.95,8.03-24.48,5.89-8.47,13.13-12.71,21.74-12.71Zm4.55,16.59c-3.48,0-6.65,1.36-9.5,4.08-2.63,2.54-4.28,5.55-4.95,9.03h29.17c-.94-3.7-2.63-6.76-5.08-9.16-2.77-2.63-5.98-3.95-9.63-3.95Z"/>
  <path class="cls-1" d="m478.9,125.71c20.2,0,34.47,8.58,42.81,25.75-2.41.85-5.69,2.39-9.83,4.62-4.46,2.36-7.69,3.95-9.7,4.75-4.95-9.77-12.53-14.65-22.74-14.65-8.88,0-15.56,3.48-20.07,10.44-3.75,5.89-5.62,13.51-5.62,22.88s1.96,17.1,5.89,22.95c4.59,6.82,11.37,10.23,20.34,10.23,6.51,0,12.02-2.2,16.52-6.59,4.5-4.39,6.67-9.84,6.49-16.36h-25.69v-18.2h44.95v59.13h-19.53v-6.69c-6.78,6.07-15.34,9.1-25.69,9.1-14.14,0-25.55-5.71-34.25-17.12-7.94-10.39-11.91-22.81-11.91-37.26s4.33-26.94,12.98-37.06c9.05-10.61,20.74-15.92,35.05-15.92Z"/>
  <path class="cls-1" d="m560.43,154.27c12.71,0,21.34,2.72,25.89,8.16,3.34,4.06,5.02,10.88,5.02,20.47,0,1.52-.04,3.97-.13,7.36-.09,3.39-.13,5.98-.13,7.76,0,5.89.4,10.97,1.2,15.25,2.18,2.28,4.68,3.7,7.49,4.28-2.01,4.42-4.33,9.5-6.96,15.25-7.94.04-13.91-2.45-17.93-7.49-4.95,5-10.82,7.49-17.59,7.49-6.42,0-12.62-1.81-18.6-5.42-6.91-4.2-10.37-9.33-10.37-15.41,0-9.24,3.97-16.52,11.91-21.84,6.91-4.6,15.32-6.9,25.22-6.9,2.01,0,3.99.11,5.95.33v-1.81c.18-6.51-2.81-9.77-8.95-9.77-3.65,0-7.79,1.05-12.42,3.14-6.5,2.94-10.35,4.59-11.55,4.95l-1.87-3.48c-.09,0-.36-.36-.8-1.07-1.74-2.36-3.96-5.93-6.68-10.7,4.99-2.32,10.01-4.64,15.05-6.96,5.66-2.41,11.08-3.61,16.26-3.61Zm-11.04,53.95c0,2.28,1.2,4.25,3.61,5.91,2.18,1.43,4.5,2.15,6.96,2.15,2.68,0,5.69-.81,9.03-2.42,1.61-2.06,2.41-3.49,2.41-4.3v-11.28h-.8c-1.25,0-4.59.63-10.03,1.88-5.58,1.3-8.65,2.19-9.23,2.69-1.29,1.16-1.94,2.95-1.94,5.37Z"/>
  <path class="cls-1" d="m641.83,155.28c7.89,0,13.89,3.28,17.99,9.83,6.11-6.56,12.73-9.83,19.87-9.83,8.12,0,15.04,2.95,20.77,8.85s8.6,12.89,8.6,20.98v45.3h-20.07c0-1.16.07-4.67.2-10.53.13-5.86.2-10.68.2-14.48,0-15.15-.94-24.16-2.81-27.02-.09,0-.79-.66-2.11-1.98-1.32-1.32-2.93-1.98-4.85-1.98-3.52,0-6.6,1.19-9.23,3.55-2.77,2.5-4.15,5.5-4.15,8.99v43.45h-19.8c0-.8.09-3.77.27-8.9.18-5.13.27-9.52.27-13.18,0-22.74-3.12-34.12-9.37-34.12-3.7,0-6.95,1.28-9.73,3.85-2.79,2.57-4.18,5.65-4.18,9.26v43.08h-20.07v-73.05h20.07v4.82c5.75-4.59,11.8-6.89,18.13-6.89Z"/>
  <path class="cls-1" d="m747.91,155.74c13.25,0,23.17,3.92,29.77,11.77,6.24,7.4,9.1,17.73,8.56,30.97l-.07,2.21-.8-.27h-47.63c1.21,9.59,6.89,14.38,17.06,14.38,6.47,0,12.11-2.38,16.92-7.16,3.3,3.93,7.4,8.03,12.31,12.31-6.73,8.56-15.52,12.84-26.36,12.84-12.49,0-22.21-3.57-29.17-10.7-6.91-7-10.37-16.72-10.37-29.17,0-8.78,2.68-16.95,8.03-24.48,5.89-8.47,13.13-12.71,21.74-12.71Zm4.55,16.59c-3.48,0-6.65,1.36-9.5,4.08-2.63,2.54-4.28,5.55-4.95,9.03h29.17c-.94-3.7-2.63-6.76-5.08-9.16-2.77-2.63-5.98-3.95-9.63-3.95Z"/>
</svg>