<?xml version="1.0" encoding="UTF-8"?>
<svg height="500" width="500" xmlns="http://www.w3.org/2000/svg" viewBox="0 0 980.24 879.34">
  <defs>
    <style>
      .cls-1, .cls-2 {
        stroke-width: 0px;
      }

      .cls-2, .cls-3 {
        fill: #fff;
      }

      .cls-3 {
        stroke: #ed1c24;
        stroke-miterlimit: 10;
        stroke-width: 100px;
      }
    </style>
  </defs>
  <g id="Layer_1" data-name="Layer 1">
    <path class="cls-3" d="m434.55,82.08L58.69,733.08c-24.7,42.78,6.17,96.25,55.57,96.25h751.71c49.4,0,80.27-53.47,55.57-96.25L545.69,82.08c-24.7-42.78-86.45-42.78-111.14,0Z"/>
  </g>
  <g id="Layer_2" data-name="Layer 2">
    <polygon class="cls-2" points="490.12 72.84 77.92 786.8 902.32 786.8 490.12 72.84"/>
  </g>
  <g id="Layer_4" data-name="Layer 4">
    <path class="cls-1" d="m507.9,316.17c-5.99,4.59-16.83,14.25-22.78,30-9.09,24.06-.79,46.51,2,54,2.1,5.63,10.76,19.49,28,47,9.76,15.58,15.25,24.03,12,29-2.53,3.87-8.29,2.5-23,4-8.67.88-7.27,1.42-31,6-32.52,6.28-28.7,4.03-40,7-24.62,6.48-24.95,12.47-48,17-12.68,2.49-21.49,4.22-33,2-7.81-1.51-12.8-4.05-28-7-13.99-2.72-18.67-2.3-20,0-2.26,3.91,5.31,13.09,3,15-.69.57-2.94,1.04-3.17,1.08-1.48.3-2.13.16-2.42.58-.68,1,1.63,3.67,1.92,4,8.28,9.58,15.16,20.31,23.42,29.92,9.54,11.1,7.98,11.03,16.14,19.86,6.69,7.24,8.51,8.13,13.78,14.56,1.42,1.74,2.28,2.88,12.78,18.44,9.15,13.56,9.91,14.78,11.11,17.44.63,1.39,2.42,6.19,6,15.78,2.1,5.62,3.16,8.55,5.67,12.33,1.07,1.62,3.29,4.72,6.89,7.78,3.45,2.94,5.18,4.4,7.78,4.56,1.78.1,3.24-.44,4.33.56.84.77.83,1.88,1,3.44.25,2.27,1.11,4.43,1.56,6.67.76,3.83,3.32,15.68,5.56,24.89,2.14,8.83,2.85,10.54,1.78,13.22-.73,1.83-2.35,4.3-1.56,7.11.22.76.54,1.16,1.78,2.89,1.38,1.92,2.69,3.89,4.11,5.78,3.51,4.67,2.97,4.46,5.78,8.11,2.18,2.84,3.45,4.47,5.56,6.44,1.21,1.14,2.88,2.68,5.44,4.22,2.39,1.43,4.22,2.05,7,3,3.81,1.3,4.81,1.15,5.56.78,1.64-.81,2.18-2.73,2.22-2.89.74-2.8-1.55-4.95-.67-6,.58-.69,2.05-.33,3-.11.28.06,4.48.45,12.89,1.22,5.79.53,3.86-.11,8.22.33,2.3.24,3.79.51,5.11-.44,1.55-1.12,1.91-3.24,2-3.78.09-.53.28-1.74-.22-3.11-.4-1.08-1.07-1.83-1.33-2.11-.87-.94-1.5-1.1-1.44-1.33.11-.47,2.71-.13,6.78.11,3.98.24,1.82-.07,7.22.11,2.65.09,3.6.18,4-.44.78-1.22-1.43-3.88-1.89-4.44-1.36-1.65-2.85-2.53-4.22-3.33-.94-.55-2.26-1.32-4.11-1.89-1.02-.31-1.8-.44-6.22-.78-4.43-.34-4.21-.25-6-.44-2.3-.25-2.07-.33-5.78-.78-1.93-.23-2.6-.29-3.89-.56-.6-.13-1.96-.43-3.67-1-1.96-.66-1.84-.81-3.44-1.33-1.27-.41-1.28-.29-4.78-1.11-1.13-.27-1.01-.25-3.22-.78-1.92-.46-2.89-.69-3.33-.78-2.14-.43-2.25-.25-4.56-.67-.52-.09-2.06-.38-4-.89-1.58-.41-1.77-.54-2.96-.79-1.61-.34-1.81-.22-3.12-.53-1.38-.33-2.27-.55-3.06-1.12-1.09-.8-1.55-2-1.98-3.61-.82-3.08-1.02-5.75-1.17-9.17-.19-4.4-.07-4.73-.33-6.75-.29-2.25-.55-2.68-1.25-6-.48-2.29-.84-4.74-1.56-9.65-.72-4.88-.82-6.14-.52-7.93.28-1.66.61-3.53,2.06-4.89,1.59-1.5,3.38-1.32,6-1.78,4.16-.72,4.82-2.11,9.78-4.11,2.72-1.1,5.7-1.69,11.67-2.89,10.22-2.05,17.94-2.6,21-2.78,2.57-.15,4.13-1.12,5.67-.22,2.26,1.33,2.55,4.72,2.78,11.67.26,7.78.39,11.67.22,15.33-.4,8.91-.85,18.75-3.67,22-.24.27-1.22,1.34-1.22,2.78,0,1.16.64,2.42,1.67,3,.85.48,1.75.36,2,.33.62-.07,5.78.92,16.11,2.89,8.13,1.55,7.51,1.58,12.22,2.44,19.41,3.54,25.8,2.24,29.89,5.75.41.35,2.64,2.34,5.56,2.36.58,0,2.02,0,2.67-.89.84-1.15.11-3.44.11-3.44.19-.59.47-.92.67-1.11,2.04-1.98,6.15,1.14,11.78-.11,2.12-.47,2.68-1.17,2.89-1.67.49-1.15-.27-2.62-1-3.44-.71-.81-1.96-1.29-4.44-2.22-1.86-.7-3.03-1.02-4.15-2.12-.68-.67-.88-1.17-.96-1.43-.35-1.12.26-1.67,0-2.44-.36-1.08-2.03-1.43-3.67-1.78-2.18-.46-2.45-.04-5.09-.49-1.52-.26-2.89-.65-3.46-.81-1.29-.37-1.63-.55-3.01-.92-1.11-.3-1.57-.36-2.89-.67-3-.71-3.02-.8-4.44-1.11-.83-.18-2.34-.38-5.33-.78-3.85-.51-3.87-.48-4.89-.67-2.48-.46-2.43-.66-4.89-1.11-1.74-.32-3.13-.46-5.11-.67-2.65-.27-2.69-.06-3.89-.33-.83-.19-2.58-.6-4.33-1.89-.79-.58-1.34-1.2-2.44-2.44-1.29-1.45-1.93-2.17-2.33-2.89-.4-.72-.66-1.47-1.11-6.33-.18-1.9-.26-2.85-.33-4.11-.14-2.58-.09-3.83-.11-6.44-.06-5.89-.38-5.06-.22-7.44.3-4.49,1.24-4.3,1.22-8.11-.01-2.13-.31-3.35.56-4.44,1.1-1.38,3.15-1.4,3.89-1.44,4.35-.26,8.12-4.08,13-8.44,7.75-6.93,16.22-13.01,24.11-19.78,7.25-6.23,14.38-12.6,21.67-18.78,9.81-8.32,12.72-10.51,16.56-15.78,1.84-2.52,1.7-2.75,8.78-14.44,6.45-10.66,6.14-9.76,8.56-14,5.78-10.13,8.67-15.19,10.11-22.11,1.24-5.95,1.02-10.64.78-15.67-.44-9.15-2.28-15.94-3.56-20.56-3.07-11.08-7.08-18.85-8.22-21-2.58-4.85-5.18-9.68-9.22-14.22-1.52-1.7-3.84-4.04-6.56-8-1.24-1.8-1.53-2.44-2.78-4-1.68-2.09-2.35-2.42-5.78-5.89-.39-.4-1.74-1.82-4.44-4.67-4.04-4.26-3.83-4.06-4-4.22-4.3-4.04-6.14-3.79-9.11-7.44-.98-1.21-1.05-1.57-2.44-3.22-1.96-2.32-2.69-2.63-4.22-4.44-1.7-2.01-1.24-2.14-3.44-5.22-2.11-2.95-2.52-2.8-4.33-5.44-1.71-2.49-1.43-2.74-3.22-5.44-2.13-3.22-2.65-3.06-4.33-5.67-1.23-1.9-.94-1.96-3.56-7.56-2.41-5.15-2.91-5.66-3-7.44-.13-2.71.88-4.89,1.44-6.11.81-1.74,1.83-3.14,3.78-5.22,4.2-4.48,8.18-7.31,9.33-8.11,3.63-2.52,6.14-4.27,10-5.67,2.72-.98,4.45-1.19,10.89-3.22,1.18-.37,5.04-1.62,6.11-3.56.08-.15.34-.65.89-1,1.05-.67,2.37-.32,2.78-.22,2.77.68,5.72-.01,8.56.33,9.23,1.13,14.32-1.01,26.12,0,1.02.09,4.11.37,7.88-.56,1.54-.38,3.46-.87,5.44-2.33,1.35-1,3.74-2.76,4.22-5.89.03-.17.51-3.65-1.67-6-1.01-1.09-1.79-1.06-4.89-2.56-1.94-.93-2.63-1.42-4.67-2.56-5.33-2.97-8.98-4.3-14.78-7.33-5.16-2.7-8.72-4.56-13-7.67-2.47-1.8-5.9-4.54-10.56-6.22-.6-.22-1.4-.48-2.56-1-3.77-1.69-6.1-3.73-7-4.44-2.83-2.25-6.15-2.87-12.78-4.11-3.76-.7-9.66-1.75-17.22-.56-7.08,1.12-12.03,3.64-13.33,4.33-5,2.64-8.5,5.82-10.67,8.11"/>
  </g>
</svg>