<?xml version="1.0" encoding="UTF-8"?>
<svg id="Layer_2" data-name="Layer 2" xmlns="http://www.w3.org/2000/svg" viewBox="0 0 1868.95 338.44">
  <defs>
    <style>
      .cls-1 {
        fill: #fff;
      }
    </style>
  </defs>
  <path class="cls-1" d="m35.06,247.22c-6.54,0-12.03-1.34-16.49-4.01-4.46-2.67-8.07-6.19-10.85-10.55-2.77-4.35-4.75-9.31-5.94-14.86C.59,212.26,0,206.71,0,201.16c0-5.94.7-12.48,2.08-19.61,1.39-7.13,3.57-14.61,6.54-22.43,2.97-7.82,6.73-15.79,11.29-23.92,4.55-8.12,10-16.05,16.34-23.77,10.1-12.48,20.35-22.63,30.75-30.46,10.4-7.82,20.45-13.97,30.16-18.42,9.7-4.46,18.67-7.53,26.89-9.21,8.22-1.68,15.3-2.53,21.25-2.53,15.45,0,25.95,2.87,31.5,8.62,1.19,1.19,1.78,2.48,1.78,3.86,0,1.78-.35,2.97-1.04,3.57-.7.59-1.44,1.09-2.23,1.49-.2.2-1.04,2.28-2.53,6.24-1.49,3.96-3.62,9.31-6.39,16.05-3.77,8.91-8.02,18.97-12.78,30.16-4.75,11.19-9.41,22.04-13.97,32.54-.59,1.39-1.29,2.87-2.08,4.46-.79,1.59-1.39,3.07-1.78,4.46-2.78,6.34-5.55,12.68-8.32,19.02-2.78,6.34-5.2,12.38-7.28,18.12-2.08,5.75-3.77,11.04-5.05,15.9-1.29,4.86-1.93,8.97-1.93,12.33,0,5.35,2.38,8.02,7.13,8.02,2.57,0,5.54-.94,8.91-2.82,3.37-1.88,6.93-4.41,10.7-7.58,5.74-4.75,11.49-10.2,17.23-16.34,5.74-6.14,10.7-11.49,14.86-16.05,1.19-1.19,2.57-1.78,4.16-1.78,1.98,0,3.42.64,4.31,1.93.89,1.29,1.34,2.63,1.34,4.01,0,.59-.15,1.29-.45,2.08-.3.79-.65,1.39-1.04,1.78-5.55,6.34-11.14,12.43-16.79,18.27-5.65,5.84-11.24,11.04-16.79,15.6-4.75,3.77-9.36,6.79-13.82,9.06-4.46,2.28-8.67,3.42-12.63,3.42-6.34,0-10.99-1.83-13.97-5.5-2.97-3.66-4.46-8.27-4.46-13.82,0-3.96.69-8.66,2.08-14.11,1.38-5.45,3.17-11.14,5.35-17.08-5.15,6.34-10.75,12.53-16.79,18.57s-12.29,11.44-18.72,16.19c-6.44,4.75-12.93,8.57-19.46,11.44-6.54,2.87-12.98,4.31-19.31,4.31Zm100.43-113.21c5.15-11.69,10.2-23.42,15.15-35.21,4.95-11.78,9.41-23.03,13.37-33.73-1.78-.79-4.26-1.43-7.43-1.93-3.17-.49-6.94-.74-11.29-.74s-9.91.7-17.23,2.08c-7.33,1.39-15.55,4.11-24.66,8.17-9.11,4.06-18.77,9.76-28.97,17.09-10.21,7.33-20.06,16.94-29.56,28.82-5.94,7.33-10.99,14.71-15.15,22.14-4.16,7.43-7.63,14.71-10.4,21.84-2.78,7.13-4.81,13.96-6.09,20.5-1.29,6.54-1.93,12.48-1.93,17.83,0,4.16.39,8.27,1.19,12.33.79,4.06,2.13,7.78,4.01,11.14,1.88,3.37,4.31,6.09,7.28,8.17,2.97,2.08,6.54,3.12,10.7,3.12,8.71,0,17.73-3.07,27.04-9.21,9.31-6.14,18.27-13.86,26.89-23.18,8.62-9.31,16.64-19.31,24.07-30.01,7.43-10.7,13.71-20.7,18.87-30.01.59-1.19,1.34-2.72,2.23-4.61.89-1.88,1.53-3.42,1.93-4.61Z"/>
  <path class="cls-1" d="m368.74,245.43c-6.34,0-10.9-1.93-13.67-5.79-2.78-3.86-4.16-8.37-4.16-13.52,0-4.55.99-10.45,2.97-17.68,1.98-7.23,4.21-14.41,6.69-21.54,2.47-7.13,4.8-13.47,6.98-19.02,2.18-5.54,3.57-9.11,4.16-10.7-3.17,1.59-7.43,2.63-12.78,3.12-5.35.5-10.3.74-14.86.74h-13.07c-7.53,0-14.11.15-19.76.45-5.65.3-10.55,1.04-14.71,2.23-4.16,1.19-7.68,2.97-10.55,5.35-2.87,2.38-5.2,5.75-6.98,10.1-1.19,2.78-2.53,5.84-4.01,9.21-1.49,3.37-2.73,6.44-3.71,9.21-2.97,7.53-6.04,15.26-9.21,23.18-3.17,7.93-6.14,14.76-8.91,20.5-1.19,2.38-2.87,3.57-5.05,3.57-1.78,0-3.22-.55-4.31-1.63-1.09-1.09-1.63-2.42-1.63-4.01,0-.39.2-1.19.59-2.38,5.35-12.67,9.61-22.88,12.78-30.61,3.17-7.73,5.69-13.86,7.58-18.42,1.88-4.55,3.31-8.07,4.31-10.55.99-2.47,1.88-4.7,2.67-6.69,4.35-10.7,8.91-21.79,13.67-33.28,4.75-11.49,9.11-22.03,13.07-31.65,3.96-9.61,7.18-17.83,9.66-24.66,2.47-6.83,3.71-11.04,3.71-12.63,0-2.77-1.39-4.55-4.16-5.35-2.78-.79-5.25-1.19-7.43-1.19-1.98,0-4.31.25-6.98.74-2.67.5-5.4,1.24-8.17,2.23-4.56,1.78-8.52,3.91-11.89,6.39-3.37,2.48-5.05,4.51-5.05,6.09s-.5,2.82-1.49,3.71c-.99.89-2.28,1.34-3.86,1.34s-2.97-.59-4.16-1.78-1.78-2.57-1.78-4.16c0-3.96,2.03-7.82,6.09-11.59,4.06-3.76,8.66-6.73,13.82-8.91,4.55-2.18,8.96-3.66,13.22-4.46,4.26-.79,7.87-1.19,10.85-1.19,5.94,0,11.19,1.44,15.75,4.31,4.55,2.87,6.83,7.38,6.83,13.52,0,1.78-.5,4.46-1.49,8.02-.99,3.57-2.38,7.63-4.16,12.18-1.78,4.56-3.82,9.66-6.09,15.3-2.28,5.65-4.71,11.44-7.28,17.38l-13.67,32.98c5.54-2.18,11.49-3.46,17.83-3.86,6.34-.39,13.17-.59,20.5-.59h17.23c7.13,0,13.97-.74,20.5-2.23s11.59-5.3,15.15-11.44c3.17-7.53,6.54-15.35,10.1-23.47,3.57-8.12,7.03-16.05,10.4-23.77l14.56-33.87c.99-2.38,2.77-3.57,5.35-3.57,1.78,0,3.22.59,4.31,1.78,1.09,1.19,1.63,2.58,1.63,4.16,0,.2-.1.59-.3,1.19-.2.59-.4,1.09-.59,1.49-2.58,5.75-5.1,11.64-7.58,17.68-2.48,6.04-5,11.94-7.58,17.68-4.95,11.29-9.41,21.59-13.37,30.9-3.96,9.31-7.33,17.23-10.1,23.77-2.97,7.33-5.94,14.76-8.91,22.28-2.97,7.53-5.6,14.71-7.87,21.54-2.28,6.83-4.16,13.07-5.65,18.72-1.49,5.65-2.23,10.35-2.23,14.11,0,2.38.45,4.21,1.34,5.5.89,1.29,2.53,1.93,4.9,1.93,3.17,0,6.73-1.23,10.7-3.71,3.96-2.47,8.12-5.69,12.48-9.66,4.75-4.35,9.51-9.01,14.26-13.96,4.75-4.95,8.81-9.41,12.18-13.37,1.58-1.58,3.17-2.38,4.75-2.38s2.92.65,4.01,1.93c1.09,1.29,1.63,2.73,1.63,4.31,0,.59-.2,1.29-.59,2.08-.4.79-.79,1.39-1.19,1.78-4.95,5.35-9.86,10.65-14.71,15.9-4.86,5.25-9.76,9.95-14.71,14.11-5.15,4.36-10.1,7.87-14.86,10.55s-9.41,4.01-13.97,4.01Z"/>
  <path class="cls-1" d="m435.3,246.32c-3.96,0-7.38-.79-10.25-2.38-2.87-1.58-5.2-3.66-6.98-6.24-1.78-2.57-3.12-5.45-4.01-8.62-.89-3.17-1.34-6.43-1.34-9.81,0-4.95.79-10.45,2.38-16.49,1.59-6.04,4.01-12.13,7.28-18.27,3.27-6.14,7.28-11.98,12.03-17.53,4.75-5.54,10.3-10.4,16.64-14.56.79-.39,1.53-.74,2.23-1.04.69-.3,1.23-.45,1.63-.45,1.58,0,2.97.59,4.16,1.78s1.78,2.48,1.78,3.86c0,1.98-.89,3.67-2.67,5.05-5.35,3.57-10.1,7.78-14.26,12.63-4.16,4.86-7.73,9.91-10.7,15.15-2.97,5.25-5.2,10.45-6.69,15.6-1.49,5.15-2.23,9.91-2.23,14.26,0,3.96.89,7.53,2.67,10.7,1.78,3.17,4.55,4.75,8.32,4.75,4.55,0,9.16-1.63,13.82-4.9,4.65-3.27,8.66-6.49,12.03-9.66-6.34-5.94-9.51-14.75-9.51-26.45,0-3.76.59-8.22,1.78-13.37,1.19-5.15,2.97-10.1,5.35-14.86,2.38-4.75,5.35-8.77,8.91-12.03,3.57-3.27,7.62-4.9,12.18-4.9,3.17,0,5.74.79,7.73,2.38,1.98,1.59,3.51,3.57,4.61,5.94,1.09,2.38,1.83,4.9,2.23,7.58.39,2.67.59,5.1.59,7.28,0,8.32-1.54,16.15-4.61,23.47-3.07,7.33-6.69,14.17-10.85,20.5,6.73,0,13.97-3.46,21.69-10.4,1.98-1.58,3.96-3.42,5.94-5.5,1.98-2.08,4.06-4.41,6.24-6.98,1.19-1.19,2.67-1.78,4.46-1.78,1.98,0,3.37.64,4.16,1.93.79,1.29,1.19,2.63,1.19,4.01,0,1.59-.5,2.87-1.49,3.86-2.38,2.78-4.75,5.35-7.13,7.73-2.38,2.38-4.86,4.66-7.43,6.83-4.16,3.57-8.52,6.44-13.07,8.62-4.56,2.18-9.21,3.27-13.97,3.27-3.37,0-6.24-.39-8.62-1.19-4.95,5.35-10.5,10.06-16.64,14.11-6.14,4.06-12.68,6.09-19.61,6.09Zm44.57-86.17c-2.38,0-4.61,1.24-6.69,3.71-2.08,2.48-3.86,5.45-5.35,8.91-1.49,3.47-2.63,7.13-3.42,10.99-.79,3.86-1.19,7.18-1.19,9.95,0,2.18.34,5.05,1.04,8.62.69,3.57,2.13,6.44,4.31,8.62,3.96-5.74,7.43-12.08,10.4-19.02,2.97-6.93,4.46-13.57,4.46-19.91,0-.79-.05-1.88-.15-3.27-.1-1.38-.25-2.72-.45-4.01-.2-1.29-.55-2.38-1.04-3.27-.5-.89-1.14-1.34-1.93-1.34Z"/>
  <path class="cls-1" d="m539.29,245.14c-3.96,0-5.94-1.98-5.94-5.94,0-.79.1-1.49.3-2.08.19-.59.69-1.68,1.49-3.27,3.76-6.73,7.67-14.56,11.74-23.47,4.06-8.91,7.58-17.23,10.55-24.96,1.58-4.55,2.92-8.66,4.01-12.33,1.09-3.66,1.63-6.69,1.63-9.06,0-1.98-.4-2.97-1.19-2.97-1.39,0-3.47.99-6.24,2.97-1.59.99-3.86,3.07-6.83,6.24-2.97,3.17-6.34,6.83-10.1,10.99l-16.94,19.31c-1.19,1.39-2.67,2.08-4.46,2.08-1.58,0-2.97-.54-4.16-1.63-1.19-1.09-1.78-2.42-1.78-4.01s.59-2.97,1.78-4.16c2.18-2.77,4.75-5.84,7.73-9.21,2.97-3.37,6.04-6.73,9.21-10.1,3.76-4.16,7.33-7.97,10.7-11.44,3.37-3.46,6.04-5.99,8.02-7.58,4.55-3.37,8.91-5.05,13.07-5.05s7.62,1.63,9.81,4.9c2.18,3.27,3.27,6.59,3.27,9.95,0,1.59-.2,3.67-.59,6.24-.4,2.58-1.09,5.25-2.08,8.02,7.13-8.32,14.51-15.15,22.14-20.5,7.62-5.35,15.4-8.02,23.33-8.02,4.16,0,7.62,1.14,10.4,3.42,2.77,2.28,4.16,5.4,4.16,9.36,0,2.97-.5,6.24-1.49,9.81-.99,3.57-2.18,7.18-3.57,10.85-1.39,3.67-2.82,7.13-4.31,10.4-1.49,3.27-2.73,5.9-3.71,7.87-1.39,2.58-2.78,5.35-4.16,8.32-1.39,2.97-2.63,5.84-3.71,8.62-1.09,2.78-1.98,5.4-2.67,7.87-.7,2.48-1.04,4.51-1.04,6.09,0,1.19.49,1.78,1.49,1.78,2.18,0,4.75-.94,7.73-2.82,2.97-1.88,6.24-4.5,9.81-7.87,4.55-4.16,9.41-8.96,14.56-14.41,5.15-5.45,10.2-10.94,15.15-16.49,1.19-1.19,2.57-1.78,4.16-1.78,1.98,0,3.42.59,4.31,1.78.89,1.19,1.34,2.58,1.34,4.16,0,.59-.15,1.29-.45,2.08-.3.79-.65,1.39-1.04,1.78-5.15,5.75-10.7,11.79-16.64,18.13-5.94,6.34-11.79,11.79-17.53,16.34-3.96,3.37-7.78,5.99-11.44,7.87-3.67,1.88-7.08,2.82-10.25,2.82-4.56,0-7.83-1.39-9.81-4.16-1.98-2.77-2.97-5.65-2.97-8.62,0-3.96,1.29-9.21,3.86-15.75,2.57-6.54,5.54-13.37,8.91-20.5,1.19-2.77,2.47-5.74,3.86-8.91,1.38-3.17,2.67-6.24,3.86-9.21,1.19-2.97,2.18-5.74,2.97-8.32.79-2.57,1.19-4.65,1.19-6.24,0-1.19-.25-1.93-.74-2.23-.5-.3-1.24-.45-2.23-.45-3.37,0-6.79.79-10.25,2.38-3.47,1.59-6.94,3.71-10.4,6.39-3.47,2.67-6.89,5.79-10.25,9.36-3.37,3.57-6.54,7.23-9.51,10.99-2.78,3.57-5.5,7.33-8.17,11.29-2.67,3.96-5.25,7.87-7.73,11.74-2.48,3.86-4.75,7.58-6.83,11.14-2.08,3.57-3.82,6.64-5.2,9.21l-4.46,8.02c-.79,1.38-1.74,2.23-2.82,2.53-1.09.3-2.03.45-2.82.45Z"/>
  <path class="cls-1" d="m658.73,248.7c-2.18,0-3.71-.59-4.61-1.78s-1.34-2.38-1.34-3.57c0-2.18.79-5.1,2.38-8.77,1.59-3.66,2.87-6.78,3.86-9.36l12.48-32.09-6.24,7.13c-1.19,1.59-2.67,2.38-4.46,2.38-1.58,0-2.97-.64-4.16-1.93-1.19-1.29-1.78-2.62-1.78-4.01,0-1.58.5-2.87,1.49-3.86l4.46-4.75c4.16-4.55,8.37-9.41,12.63-14.56,4.26-5.15,8.37-10,12.33-14.56,10.1-24.76,18.72-45.06,25.85-60.91,7.13-15.85,12.87-26.94,17.23-33.28,3.37-4.95,6.98-8.62,10.85-10.99,3.86-2.38,7.18-3.57,9.95-3.57,4.55,0,8.02,1.74,10.4,5.2,2.38,3.47,3.57,7.18,3.57,11.14,0,5.15-2.78,12.29-8.32,21.39-2.38,3.96-5.25,8.32-8.62,13.07-3.37,4.75-7.23,9.91-11.59,15.45-5.35,6.94-11.39,14.51-18.13,22.73-6.74,8.22-13.87,16.79-21.39,25.7l-3.27,7.73c5.94-6.54,12.38-12.08,19.31-16.64,2.77-1.78,5.59-3.22,8.47-4.31,2.87-1.09,5.69-1.63,8.47-1.63,5.35,0,9.36,1.63,12.03,4.9s4.01,7.18,4.01,11.74c0,3.96-.89,7.68-2.67,11.14-1.78,3.47-4.06,6.79-6.83,9.95-5.15,5.35-11.39,9.81-18.72,13.37-7.33,3.57-14.66,5.94-21.99,7.13.79,2.38,1.93,5.65,3.42,9.81s3.51,7.73,6.09,10.7c2.97,3.57,6.34,5.35,10.1,5.35,2.18,0,4.55-.84,7.13-2.53,2.57-1.68,5.54-3.91,8.91-6.69,3.37-2.77,6.93-6.14,10.7-10.1,3.76-3.96,7.82-8.22,12.18-12.78l8.62-9.21c.59-.59,1.34-1.04,2.23-1.34s1.63-.45,2.23-.45c1.98,0,3.42.59,4.31,1.78.89,1.19,1.34,2.48,1.34,3.86,0,1.59-.59,2.97-1.78,4.16l-4.75,5.05c-5.75,6.34-10.99,11.89-15.75,16.64s-9.11,8.82-13.07,12.18c-4.36,3.57-8.37,6.29-12.03,8.17-3.67,1.88-7.48,2.82-11.44,2.82-3.57,0-6.74-.79-9.51-2.38-2.78-1.58-5.25-3.66-7.43-6.24-2.97-3.37-5.45-7.43-7.43-12.18-1.98-4.75-3.77-9.41-5.35-13.96l-1.49-4.16c-2.18,3.76-4.31,7.63-6.39,11.59-2.08,3.96-3.91,7.93-5.5,11.89l-5.05,13.37c-.4,1.19-1.04,2.33-1.93,3.42-.89,1.09-2.23,1.63-4.01,1.63Zm70.12-87.06c-3.77,0-8.32,1.88-13.67,5.65-4.36,3.17-8.91,7.38-13.67,12.63-4.75,5.25-9.41,11.14-13.97,17.68,3.57-.59,7.38-1.44,11.44-2.53,4.06-1.09,8.27-2.72,12.63-4.9,5.74-2.77,10.74-6.19,15.01-10.25,4.26-4.06,6.39-8.47,6.39-13.22,0-3.37-1.39-5.05-4.16-5.05Zm20.8-99.84c-3.17,0-6.83,3.07-10.99,9.21-1.39,2.18-2.93,4.66-4.61,7.43-1.69,2.78-3.62,6.39-5.79,10.85-2.18,4.46-4.75,9.95-7.73,16.49s-6.44,14.46-10.4,23.77c7.53-9.11,14.51-17.93,20.95-26.45,6.44-8.51,11.54-15.94,15.3-22.29,3.76-6.54,5.65-11.19,5.65-13.97,0-1.19-.15-2.33-.45-3.42-.3-1.09-.94-1.63-1.93-1.63Z"/>
  <path class="cls-1" d="m838.5,245.43c-2.18,0-3.76-.5-4.75-1.49-.99-.99-1.49-2.18-1.49-3.57v-1.34c0-.49.2-1.04.59-1.63l35.95-85.28c3.76-9.11,7.62-18.37,11.59-27.78,3.96-9.41,7.53-17.98,10.7-25.7,3.17-7.73,5.74-14.31,7.73-19.76,1.98-5.45,2.97-8.96,2.97-10.55,0-2.77-1.39-4.55-4.16-5.35-2.78-.79-5.25-1.19-7.43-1.19-3.17,0-7.38.59-12.63,1.78-5.25,1.19-9.76,2.97-13.52,5.35-3.97,2.58-5.94,5.35-5.94,8.32,0,1.59-.65,2.82-1.93,3.71-1.29.89-2.63,1.34-4.01,1.34-1.98,0-3.42-.64-4.31-1.93-.89-1.29-1.34-2.53-1.34-3.71,0-2.77.79-5.4,2.38-7.87,1.58-2.47,3.76-4.8,6.54-6.98,4.75-3.57,10.4-6.39,16.94-8.47,6.54-2.08,12.48-3.12,17.83-3.12,2.77,0,5.54.35,8.32,1.04,2.77.7,5.25,1.74,7.43,3.12,2.18,1.39,3.96,3.27,5.35,5.65,1.38,2.38,2.08,5.15,2.08,8.32,0,2.18-.79,5.7-2.38,10.55-1.59,4.86-3.47,9.95-5.65,15.3,4.75-6.14,9.66-11.98,14.71-17.53,5.05-5.54,10.15-10.4,15.3-14.56,5.15-4.16,10.3-7.47,15.45-9.95,5.15-2.47,10.1-3.71,14.86-3.71,8.51,0,14.61,2.78,18.27,8.32,3.66,5.55,5.5,12.38,5.5,20.5,0,2.58-.15,5.05-.45,7.43s-.65,4.95-1.04,7.73c4.35-5.35,9.01-10.65,13.96-15.9,4.95-5.25,10.15-9.9,15.6-13.97,5.45-4.06,11.09-7.38,16.94-9.95,5.84-2.57,11.83-3.86,17.98-3.86,7.33,0,12.58,2.43,15.75,7.28,3.17,4.86,4.75,10.45,4.75,16.79,0,5.15-.89,11.04-2.67,17.68-1.78,6.64-4.01,13.52-6.69,20.65-2.67,7.13-5.55,14.22-8.62,21.25-3.07,7.03-5.9,13.52-8.47,19.46-3.57,8.32-6.94,16.39-10.1,24.22-3.17,7.83-6.04,15.11-8.62,21.84-2.58,6.74-4.61,12.68-6.09,17.83-1.49,5.15-2.23,9.11-2.23,11.89,0,1.98.54,3.82,1.63,5.5,1.09,1.68,2.72,2.53,4.9,2.53,1.98,0,4.61-1.24,7.87-3.71,3.27-2.47,6.78-5.54,10.55-9.21,3.76-3.66,7.47-7.53,11.14-11.59,3.66-4.06,6.98-7.67,9.95-10.85,1.38-1.38,2.62-2.72,3.71-4.01,1.09-1.29,2.13-2.42,3.12-3.42,1.19-1.19,2.57-1.78,4.16-1.78s2.92.64,4.01,1.93c1.09,1.29,1.63,2.63,1.63,4.01,0,.59-.15,1.29-.45,2.08-.3.79-.65,1.39-1.04,1.78l-6.54,7.13c-4.16,4.56-8.42,9.17-12.78,13.82-4.36,4.66-8.62,8.82-12.78,12.48-4.16,3.67-8.12,6.69-11.88,9.06-3.77,2.38-7.23,3.57-10.4,3.57-6.34,0-10.99-1.88-13.96-5.65-2.97-3.76-4.46-8.22-4.46-13.37,0-3.96.89-9.01,2.67-15.15,1.78-6.14,3.96-12.67,6.54-19.61,2.57-6.93,5.3-13.86,8.17-20.8,2.87-6.93,5.5-13.07,7.87-18.42,3.17-7.53,6.49-15.15,9.95-22.88,3.46-7.73,6.54-15.15,9.21-22.29,2.67-7.13,4.9-13.77,6.69-19.91,1.78-6.14,2.67-11.49,2.67-16.05,0-3.57-.74-6.58-2.23-9.06-1.49-2.47-3.91-3.71-7.28-3.71-7.33,0-14.91,2.78-22.73,8.32-7.83,5.55-15.3,12.23-22.43,20.06-7.13,7.83-13.62,15.95-19.46,24.37-5.84,8.42-10.35,15.5-13.52,21.25-3.76,8.12-7.63,16.84-11.59,26.15-3.96,9.31-7.87,18.72-11.74,28.23-3.86,9.51-7.58,18.82-11.14,27.93-3.57,9.11-6.83,17.53-9.81,25.26-.99,2.38-2.78,3.57-5.35,3.57-3.76,0-5.65-1.88-5.65-5.65,0-.79.1-1.58.3-2.38,1.78-4.55,4.5-11.44,8.17-20.65,3.66-9.21,7.67-19.21,12.03-30.01,4.35-10.79,8.81-21.59,13.37-32.39,4.55-10.79,8.71-20.25,12.48-28.38,3.57-8.12,6.58-16.14,9.06-24.07,2.47-7.92,3.71-16.05,3.71-24.37,0-4.55-.89-8.57-2.67-12.03-1.78-3.46-4.95-5.2-9.51-5.2s-9.11,1.63-14.26,4.9c-5.15,3.27-10.45,7.63-15.9,13.07-5.45,5.45-10.99,11.69-16.64,18.72-5.65,7.03-11.05,14.36-16.19,21.99-5.15,7.63-9.95,15.26-14.41,22.88-4.46,7.63-8.27,14.61-11.44,20.95l-18.72,44.57c-3.37,8.12-6.39,15.26-9.06,21.39-2.67,6.14-4.51,10.6-5.5,13.37-.4,1.19-1.09,2.08-2.08,2.67-.99.59-1.98.89-2.97.89Z"/>
  <path class="cls-1" d="m1088.98,246.32c-3.97,0-7.38-.79-10.25-2.38-2.87-1.58-5.2-3.66-6.98-6.24-1.78-2.57-3.12-5.45-4.01-8.62-.89-3.17-1.34-6.43-1.34-9.81,0-4.95.79-10.45,2.38-16.49,1.59-6.04,4.01-12.13,7.28-18.27,3.27-6.14,7.28-11.98,12.03-17.53,4.75-5.54,10.3-10.4,16.64-14.56.79-.39,1.53-.74,2.23-1.04.69-.3,1.23-.45,1.63-.45,1.58,0,2.97.59,4.16,1.78s1.78,2.48,1.78,3.86c0,1.98-.89,3.67-2.67,5.05-5.35,3.57-10.1,7.78-14.26,12.63-4.16,4.86-7.73,9.91-10.7,15.15-2.97,5.25-5.2,10.45-6.69,15.6-1.49,5.15-2.23,9.91-2.23,14.26,0,3.96.89,7.53,2.67,10.7,1.78,3.17,4.55,4.75,8.32,4.75,4.55,0,9.16-1.63,13.82-4.9,4.65-3.27,8.66-6.49,12.03-9.66-6.34-5.94-9.51-14.75-9.51-26.45,0-3.76.59-8.22,1.78-13.37,1.19-5.15,2.97-10.1,5.35-14.86s5.35-8.77,8.91-12.03,7.62-4.9,12.18-4.9c3.17,0,5.74.79,7.73,2.38,1.98,1.59,3.51,3.57,4.61,5.94,1.09,2.38,1.83,4.9,2.23,7.58.39,2.67.59,5.1.59,7.28,0,8.32-1.54,16.15-4.61,23.47-3.07,7.33-6.69,14.17-10.84,20.5,6.73,0,13.96-3.46,21.69-10.4,1.98-1.58,3.96-3.42,5.94-5.5,1.98-2.08,4.06-4.41,6.24-6.98,1.19-1.19,2.67-1.78,4.46-1.78,1.98,0,3.37.64,4.16,1.93.79,1.29,1.19,2.63,1.19,4.01,0,1.59-.5,2.87-1.49,3.86-2.38,2.78-4.75,5.35-7.13,7.73-2.38,2.38-4.86,4.66-7.43,6.83-4.16,3.57-8.52,6.44-13.07,8.62-4.56,2.18-9.21,3.27-13.97,3.27-3.37,0-6.24-.39-8.62-1.19-4.95,5.35-10.5,10.06-16.64,14.11-6.14,4.06-12.68,6.09-19.61,6.09Zm44.57-86.17c-2.38,0-4.61,1.24-6.69,3.71-2.08,2.48-3.86,5.45-5.35,8.91-1.49,3.47-2.63,7.13-3.42,10.99-.79,3.86-1.19,7.18-1.19,9.95,0,2.18.34,5.05,1.04,8.62.69,3.57,2.13,6.44,4.31,8.62,3.96-5.74,7.43-12.08,10.4-19.02,2.97-6.93,4.46-13.57,4.46-19.91,0-.79-.05-1.88-.15-3.27-.1-1.38-.25-2.72-.45-4.01-.2-1.29-.55-2.38-1.04-3.27-.5-.89-1.14-1.34-1.93-1.34Z"/>
  <path class="cls-1" d="m1176.63,249c-7.73,0-14.71-1.88-20.95-5.65-6.24-3.76-11.54-8.51-15.9-14.26-.39-.39-.74-.89-1.04-1.49-.3-.59-.45-1.49-.45-2.67,0-1.58.7-3.07,2.08-4.46,4.95-4.75,9.86-9.61,14.71-14.56,4.86-4.95,9.16-9.7,12.92-14.26,5.15-6.14,10.25-12.73,15.3-19.76,5.05-7.03,9.55-13.62,13.52-19.76.79-.99,1.93-2.33,3.42-4.01,1.49-1.68,3.22-2.53,5.2-2.53,1.58,0,2.87.65,3.86,1.93.99,1.29,1.49,2.63,1.49,4.01,0,.99-.5,2.13-1.49,3.42-.99,1.29-1.98,2.63-2.97,4.01-.59,1.39-.99,3.12-1.19,5.2-.2,2.08-.3,4.41-.3,6.98,0,6.74.3,13.18.89,19.31.2,2.78.39,5.6.59,8.47.2,2.87.3,5.7.3,8.47,0,3.57-.15,7.08-.45,10.55-.3,3.47-.94,6.79-1.93,9.95,6.93-4.75,13.77-10.2,20.5-16.34,3.37-3.17,6.58-6.34,9.66-9.51,3.07-3.17,5.99-6.24,8.77-9.21,1.19-1.19,2.57-1.78,4.16-1.78,1.98,0,3.42.59,4.31,1.78s1.34,2.48,1.34,3.86c0,1.78-.5,3.17-1.49,4.16-4.36,4.95-9.17,10.01-14.41,15.15-5.25,5.15-10.75,10-16.49,14.56-6.94,5.35-14.11,9.76-21.54,13.22-7.43,3.46-14.91,5.2-22.43,5.2Zm-1.49-48.14c-6.54,7.73-14.26,16.05-23.18,24.96,3.57,3.77,7.33,6.59,11.29,8.47,3.96,1.88,8.81,2.82,14.56,2.82,6.73,0,11.29-2.77,13.67-8.32,2.38-5.54,3.57-12.48,3.57-20.8,0-3.37-.1-6.69-.3-9.95-.2-3.27-.5-6.49-.89-9.66-.2-1.78-.35-3.71-.45-5.79-.1-2.08-.15-3.61-.15-4.61-2.38,3.37-5.1,6.94-8.17,10.7-3.07,3.77-6.39,7.83-9.95,12.18Z"/>
  <path class="cls-1" d="m1247.05,202.65c-1.78,0-3.22-.54-4.31-1.63-1.09-1.09-1.63-2.42-1.63-4.01s.59-2.97,1.78-4.16c5.15-5.35,9.51-10.45,13.07-15.3,3.57-4.85,6.83-9.75,9.81-14.71h-10.99c-1.59,0-2.97-.59-4.16-1.78s-1.78-2.57-1.78-4.16.59-2.92,1.78-4.01c1.19-1.09,2.57-1.63,4.16-1.63h17.23c.59-1.19,1.19-2.38,1.78-3.57.39-.99.84-2.03,1.34-3.12.49-1.09.94-2.03,1.34-2.82,2.97-7.73,5.5-14.11,7.58-19.17,2.08-5.05,3.71-8.96,4.9-11.74,1.38-3.37,2.57-5.94,3.57-7.73.99-2.38,2.77-3.57,5.35-3.57,1.98,0,3.42.59,4.31,1.78s1.34,2.48,1.34,3.86v1.49c0,.59-.2,1.29-.59,2.08l-17.83,42.49h27.34c1.58,0,2.97.55,4.16,1.63,1.19,1.09,1.78,2.43,1.78,4.01s-.59,2.97-1.78,4.16-2.58,1.78-4.16,1.78h-31.79c-1.78,4.36-3.62,9.21-5.5,14.56-1.88,5.35-3.62,10.8-5.2,16.34-1.59,5.55-2.92,10.85-4.01,15.9-1.09,5.05-1.63,9.46-1.63,13.22,0,2.38.39,4.95,1.19,7.73.79,2.78,2.38,4.16,4.75,4.16,1.98,0,4.65-1.29,8.02-3.86,3.37-2.57,7.23-5.84,11.59-9.81,4.35-3.96,8.86-8.47,13.52-13.52,4.65-5.05,9.06-9.95,13.22-14.71,1.19-1.19,2.57-1.78,4.16-1.78s2.97.59,4.16,1.78,1.78,2.48,1.78,3.86c0,1.59-.59,2.97-1.78,4.16-2.78,3.37-6.69,7.93-11.74,13.67-5.05,5.75-10.45,11.19-16.19,16.34-4.75,4.36-9.46,8.02-14.11,10.99-4.66,2.97-8.87,4.46-12.63,4.46-2.97,0-5.55-.7-7.73-2.08-2.18-1.39-3.96-3.17-5.35-5.35-1.39-2.18-2.43-4.65-3.12-7.43-.7-2.77-1.04-5.54-1.04-8.32,0-3.96.39-8.42,1.19-13.37.79-4.95,1.98-10.3,3.57-16.04l-6.54,7.13c-1.19,1.19-2.58,1.78-4.16,1.78Z"/>
  <path class="cls-1" d="m1443.45,98.05c-.99,0-2.18-.34-3.57-1.04-1.39-.69-2.48-1.34-3.27-1.93-2.97-2.18-5.15-4.8-6.54-7.87-1.39-3.07-2.08-6.29-2.08-9.66,0-3.96,1.09-7.87,3.27-11.74,2.18-3.86,4.95-6.88,8.32-9.06,3.17-1.58,6.78-2.87,10.84-3.86,4.06-.99,8.07-1.49,12.03-1.49,6.34,0,12.82.5,19.46,1.49,6.63.99,13.71,2.28,21.25,3.86,8.12,1.59,16.04,2.92,23.77,4.01,7.73,1.09,15.45,1.63,23.18,1.63,6.73,0,13.42-.59,20.06-1.78,6.63-1.19,13.12-3.37,19.46-6.54.79-.39,1.68-.59,2.67-.59,1.98,0,3.42.65,4.31,1.93.89,1.29,1.34,2.63,1.34,4.01,0,2.38-1.09,4.06-3.27,5.05-7.33,3.57-14.76,6.09-22.29,7.58-7.53,1.49-14.96,2.23-22.29,2.23-2.18,0-4.21-.05-6.09-.15-1.88-.1-3.91-.25-6.09-.45l-2.08,1.49c-2.38,1.19-5.05,4.16-8.02,8.91-2.97,4.75-6.09,10.6-9.36,17.53-3.27,6.94-6.59,14.71-9.95,23.33-3.37,8.62-6.74,17.38-10.1,26.3h24.66c1.58,0,2.97.55,4.16,1.63,1.19,1.09,1.78,2.43,1.78,4.01s-.59,2.97-1.78,4.16-2.58,1.78-4.16,1.78h-28.82c-5.75,14.86-10.55,27.04-14.41,36.55-3.86,9.51-7.48,17.73-10.85,24.66-3.96,7.93-9.51,14.11-16.64,18.57-7.13,4.46-14.86,6.69-23.18,6.69-8.91,0-16.59-1.98-23.03-5.94-6.44-3.96-11.24-9.21-14.41-15.75-.39-1.19-.84-2.38-1.34-3.57-.49-1.19-.74-2.38-.74-3.57,0-3.76,1.88-5.65,5.65-5.65,2.38,0,4.06,1.39,5.05,4.16,2.18,6.34,6.04,11.04,11.59,14.11,5.54,3.07,11.39,4.61,17.53,4.61s12.08-1.63,17.23-4.9c5.15-3.27,9.21-7.87,12.18-13.82,3.17-6.34,6.73-14.56,10.7-24.66,3.96-10.1,8.02-20.6,12.18-31.5h-31.79c-1.59,0-2.92-.59-4.01-1.78-1.09-1.19-1.63-2.57-1.63-4.16,0-3.76,1.88-5.65,5.65-5.65h36.25c7.13-19.02,13.67-35.26,19.61-48.73,5.94-13.47,11.49-23.67,16.64-30.6l-21.39-3.57c-7.13-1.19-14.07-2.33-20.8-3.42-6.74-1.09-13.07-1.63-19.02-1.63-2.58,0-5.15.25-7.73.74-2.58.5-4.95,1.24-7.13,2.23-4.56,2.58-6.83,6.44-6.83,11.59,0,4.16,2.08,7.23,6.24,9.21,2.38.99,3.57,2.78,3.57,5.35,0,1.59-.64,2.92-1.93,4.01-1.29,1.09-2.63,1.63-4.01,1.63Z"/>
  <path class="cls-1" d="m1526.95,244.54c-1.58,0-2.92-.55-4.01-1.63-1.09-1.09-1.63-2.42-1.63-4.01,0-.59.15-1.24.45-1.93.3-.69.65-1.24,1.04-1.63l42.49-54.08c3.17-5.35,6.98-10.5,11.44-15.45,4.46-4.95,9.55-9.41,15.3-13.37.79-.39,1.53-.74,2.23-1.04.69-.3,1.23-.45,1.63-.45,1.58,0,2.97.59,4.16,1.78s1.78,2.48,1.78,3.86c0,1.98-.89,3.67-2.67,5.05-5.35,3.57-10.1,7.78-14.26,12.63-4.16,4.86-7.73,9.91-10.7,15.15-2.97,5.25-5.2,10.45-6.69,15.6-1.49,5.15-2.23,9.91-2.23,14.26,0,3.96.89,7.53,2.67,10.7,1.78,3.17,4.55,4.75,8.32,4.75,4.55,0,9.16-1.63,13.82-4.9,4.65-3.27,8.66-6.49,12.03-9.66-6.34-5.94-9.51-14.75-9.51-26.45,0-3.76.59-8.22,1.78-13.37,1.19-5.15,2.97-10.1,5.35-14.86s5.35-8.77,8.91-12.03,7.62-4.9,12.18-4.9c3.17,0,5.74.79,7.73,2.38,1.98,1.59,3.51,3.57,4.61,5.94,1.09,2.38,1.83,4.9,2.23,7.58.39,2.67.59,5.1.59,7.28,0,8.32-1.54,16.15-4.61,23.47-3.07,7.33-6.69,14.17-10.84,20.5,4.95,0,10.1-1.83,15.45-5.5,5.35-3.66,11.49-9.46,18.42-17.38,1.19-1.19,2.67-1.78,4.46-1.78,1.98,0,3.37.64,4.16,1.93.79,1.29,1.19,2.63,1.19,4.01,0,1.59-.5,2.87-1.49,3.86-6.34,6.94-12.93,13.07-19.76,18.42s-14.11,8.02-21.84,8.02c-3.37,0-6.24-.39-8.62-1.19-4.95,5.35-10.5,10.06-16.64,14.11-6.14,4.06-12.68,6.09-19.61,6.09-3.96,0-7.38-.79-10.25-2.38-2.87-1.58-5.2-3.66-6.98-6.24-1.78-2.57-3.12-5.45-4.01-8.62-.89-3.17-1.34-6.43-1.34-9.81,0-.79.05-1.63.15-2.53.1-.89.15-1.83.15-2.82l-22.88,28.82c-1.19,1.19-2.57,1.78-4.16,1.78Zm93.9-84.39c-2.38,0-4.61,1.24-6.69,3.71-2.08,2.48-3.86,5.45-5.35,8.91-1.49,3.47-2.63,7.13-3.42,10.99-.79,3.86-1.19,7.18-1.19,9.95,0,2.18.34,5.05,1.04,8.62.69,3.57,2.13,6.44,4.31,8.62,3.96-5.74,7.43-12.08,10.4-19.02,2.97-6.93,4.46-13.57,4.46-19.91,0-.79-.05-1.88-.15-3.27-.1-1.38-.25-2.72-.45-4.01-.2-1.29-.55-2.38-1.04-3.27-.5-.89-1.14-1.34-1.93-1.34Z"/>
  <path class="cls-1" d="m1723.36,246.62c-1.78,0-3.27-.3-4.46-.89-1.19-.59-2.28-1.29-3.27-2.08-.99-.99-2.03-2.38-3.12-4.16-1.09-1.78-1.63-4.16-1.63-7.13,0-2.77.54-6.19,1.63-10.25,1.09-4.06,2.42-8.17,4.01-12.33-1.98,2.38-4.01,4.81-6.09,7.28-2.08,2.48-4.11,4.81-6.09,6.98-5.35,5.75-11.1,10.75-17.23,15.01-6.14,4.26-11.79,6.49-16.94,6.69-3.57,0-6.24-.65-8.02-1.93-1.78-1.29-3.17-2.53-4.16-3.71-1.58-2.38-2.38-5.65-2.38-9.81,0-6.93,2.67-16.94,8.02-30.01-1.59,1.59-3.27,2.38-5.05,2.38-1.98,0-3.42-.54-4.31-1.63-.89-1.09-1.34-2.42-1.34-4.01s.59-2.97,1.78-4.16c8.12-9.11,14.11-16.34,17.98-21.69s6.88-10,9.06-13.97c.99-1.58,1.88-3.02,2.67-4.31.79-1.29,2.27-1.93,4.46-1.93,1.58,0,2.87.65,3.86,1.93.99,1.29,1.49,2.73,1.49,4.31,0,.2-.1.65-.3,1.34-.2.7-.5,1.44-.89,2.23-.4.99-.89,2.03-1.49,3.12-.59,1.09-1.19,2.43-1.78,4.01l-10.4,24.66c-3.37,7.73-6.24,15-8.62,21.84-2.38,6.83-3.57,12.23-3.57,16.19,0,2.38.89,3.57,2.67,3.57,3.57,0,7.73-1.83,12.48-5.5,4.75-3.66,9.51-8.07,14.26-13.22,4.35-4.75,8.66-9.9,12.92-15.45,4.26-5.54,8.27-11.14,12.03-16.79,3.76-5.65,7.18-11.04,10.25-16.19,3.07-5.15,5.59-9.51,7.58-13.07.39-.99,1.04-1.83,1.93-2.53.89-.69,1.93-1.04,3.12-1.04,2.18,0,3.71.65,4.61,1.93.89,1.29,1.34,2.43,1.34,3.42,0,1.19-.4,2.58-1.19,4.16-1.78,3.96-3.52,8.27-5.2,12.93-1.68,4.66-3.52,9.26-5.5,13.82-1.59,3.57-3.32,7.58-5.2,12.03-1.88,4.46-3.62,8.87-5.2,13.22-1.59,4.36-2.92,8.42-4.01,12.18-1.09,3.77-1.63,6.64-1.63,8.62,0,1.59.39,2.38,1.19,2.38,1.58,0,3.71-.94,6.39-2.82,2.67-1.88,5.69-4.41,9.06-7.58,4.35-3.96,9.11-8.81,14.26-14.56,5.15-5.74,10.5-11.49,16.04-17.23,1.19-1.19,2.57-1.78,4.16-1.78s2.97.59,4.16,1.78,1.78,2.48,1.78,3.86c0,1.59-.59,2.97-1.78,4.16-1.39,1.39-2.92,2.93-4.61,4.61-1.69,1.68-3.42,3.62-5.2,5.79-3.37,3.96-7.13,8.17-11.29,12.63s-8.32,8.47-12.48,12.03c-3.57,3.17-7.13,5.75-10.7,7.73s-6.94,2.97-10.1,2.97Z"/>
  <path class="cls-1" d="m1789.02,246.62c-2.97,0-5.45-.65-7.43-1.93-1.98-1.29-3.57-2.87-4.75-4.75-1.19-1.88-2.08-4.01-2.67-6.39-.59-2.38-.89-4.75-.89-7.13,0-4.55.34-8.92,1.04-13.07.69-4.16,1.63-8.22,2.82-12.18-.79.79-1.98,1.19-3.57,1.19-1.78,0-3.22-.54-4.31-1.63s-1.63-2.42-1.63-4.01.5-2.87,1.49-3.86c1.39-1.38,3.71-4.01,6.98-7.87,3.27-3.86,7.18-8.77,11.74-14.71,10.7-28.72,19.71-50.76,27.04-66.11,7.33-15.35,11.98-24.91,13.96-28.67,3.17-5.74,6.19-10.3,9.06-13.67,2.87-3.37,5.59-5.94,8.17-7.73,2.18-1.58,4.11-2.62,5.79-3.12,1.68-.49,3.22-.74,4.61-.74,4.55,0,7.77,1.63,9.66,4.9,1.88,3.27,2.82,6.69,2.82,10.25,0,2.18-.25,4.41-.74,6.69-.5,2.28-1.34,4.51-2.53,6.69-2.78,5.75-6.79,12.73-12.03,20.95-5.25,8.22-11.05,16.79-17.38,25.7-6.34,8.91-12.83,17.83-19.46,26.74-6.64,8.91-12.83,16.94-18.57,24.07-1.39,3.57-2.87,7.48-4.46,11.74-1.59,4.26-3.02,8.67-4.31,13.22-1.29,4.56-2.38,8.96-3.27,13.22-.89,4.26-1.34,8.17-1.34,11.74,0,2.38.25,4.41.74,6.09.49,1.69,1.93,2.53,4.31,2.53,1.58,0,3.61-.94,6.09-2.82,2.47-1.88,5.2-4.21,8.17-6.98,2.97-2.77,5.99-5.89,9.06-9.36,3.07-3.46,6.09-6.88,9.06-10.25,2.18-2.38,4.26-4.65,6.24-6.83,1.98-2.18,3.76-4.06,5.35-5.65,1.38-1.38,2.87-2.08,4.46-2.08,1.98,0,3.42.65,4.31,1.93.89,1.29,1.34,2.63,1.34,4.01,0,1.59-.59,2.97-1.78,4.16-1.59,1.59-3.22,3.37-4.9,5.35-1.69,1.98-3.62,4.16-5.79,6.54-3.37,3.57-6.83,7.28-10.4,11.14-3.57,3.86-7.13,7.48-10.7,10.85-3.97,3.37-7.73,6.19-11.29,8.47-3.57,2.27-6.94,3.42-10.1,3.42Zm67.15-184.82c-.99,0-2.48.79-4.46,2.38-1.59,1.39-3.42,3.42-5.5,6.09s-4.51,6.29-7.28,10.85c-4.56,8.12-8.96,17.14-13.22,27.04-4.26,9.91-8.27,19.51-12.03,28.82,4.36-5.94,8.66-11.89,12.93-17.83,4.26-5.94,8.22-11.69,11.89-17.23,3.66-5.54,6.93-10.74,9.81-15.6,2.87-4.85,5.2-9.06,6.98-12.63.79-1.58,1.34-3.12,1.63-4.61.3-1.49.45-2.72.45-3.71s-.1-1.83-.3-2.53c-.2-.69-.5-1.04-.89-1.04Z"/>
</svg>